<svg width="512" height="512" viewBox="0 0 512 512" fill="none" xmlns="http://www.w3.org/2000/svg">
<path fill-rule="evenodd" clip-rule="evenodd" d="M183.168 285.573L180.25 290.871L177.277 296.234L174.431 301.329L172.157 305.372L169.971 309.229L167.465 313.612L165.865 316.386L163.571 320.325L162.472 322.194L161.056 324.582L160.031 326.295L158.714 328.475L157.764 330.033L156.25 332.48L155.384 333.86L154.551 335.172L153.749 336.418L152.979 337.598L152.24 338.709L151.305 340.089L150.641 341.045L150.216 341.645L149.806 342.217L149.216 343.017L148.84 343.514L148.303 344.204L148.132 344.418C137.372 357.788 125.636 367.911 111.202 373.752C80.856 388.014 43.132 388.681 14 371.048L86.347 246.366L89.147 244.646C138.404 215.32 162.228 245.763 183.168 285.573Z" fill="url(#paint0_linear_98_73)"/>
<path fill-rule="evenodd" clip-rule="evenodd" d="M444.31 229.726C398.04 148.77 350.21 72.498 295.267 184.382C287.751 198.766 282.272 226.719 270 226.719V226.577C257.728 226.577 252.25 198.624 244.735 184.24C189.79 72.356 141.96 148.628 95.69 229.584C92.207 235.69 88.862 241.516 86 246.58C192.038 179.453 183.11 382.247 270 383.858V384C356.891 382.389 347.962 179.595 454 246.72C451.14 241.658 447.794 235.832 444.31 229.726Z" fill="url(#paint1_linear_98_73)"/>
<path fill-rule="evenodd" clip-rule="evenodd" d="M450 384C476.509 384 498 362.509 498 336C498 309.491 476.509 288 450 288C423.491 288 402 309.491 402 336C402 362.509 423.491 384 450 384Z" fill="url(#paint2_linear_98_73)"/>
<defs>
<linearGradient id="paint0_linear_98_73" x1="16930.8" y1="1738.89" x2="9220.78" y2="8639.61" gradientUnits="userSpaceOnUse">
<stop stop-color="#007060"/>
<stop offset="1" stop-color="#484848"/>
</linearGradient>
<linearGradient id="paint1_linear_98_73" x1="18486" y1="128" x2="18486" y2="25728" gradientUnits="userSpaceOnUse">
<stop stop-color="#858585"/>
<stop offset="1" stop-color="#00A76F"/>
</linearGradient>
<linearGradient id="paint2_linear_98_73" x1="5202" y1="288" x2="5202" y2="9888" gradientUnits="userSpaceOnUse">
<stop stop-color="#858585"/>
<stop offset="1" stop-color="#00A76F"/>
</linearGradient>
</defs>
</svg>
