<svg width="60" height="60" viewBox="0 0 60 60" fill="none" xmlns="http://www.w3.org/2000/svg">
                        <circle cx="30" cy="30" r="30" fill="#FFEEEF"/>
                        <g clip-path="url(#clip0_705_10303)">
                        <path d="M33.4752 17.2287C33.126 16.615 32.6204 16.1047 32.01 15.7497C31.3996 15.3947 30.7061 15.2077 30 15.2077C29.2939 15.2077 28.6004 15.3947 27.99 15.7497C27.3796 16.1047 26.874 16.615 26.5248 17.2287L16.0002 35.9796C15.666 36.568 15.4933 37.2343 15.4994 37.911C15.5056 38.5877 15.6904 39.2507 16.0353 39.833C16.3852 40.4337 16.8877 40.9312 17.4918 41.2752C18.0959 41.6192 18.7803 41.7973 19.4754 41.7917H40.5246C41.2197 41.7973 41.9041 41.6192 42.5082 41.2752C43.1123 40.9312 43.6148 40.4337 43.9647 39.833C44.3096 39.2507 44.4944 38.5877 44.5006 37.911C44.5067 37.2343 44.334 36.568 43.9997 35.9796L33.4752 17.2287ZM30 36.9583C29.761 36.9583 29.5274 36.8875 29.3287 36.7547C29.13 36.6219 28.9751 36.4332 28.8836 36.2124C28.7922 35.9916 28.7683 35.7487 28.8149 35.5143C28.8615 35.2799 28.9766 35.0646 29.1456 34.8956C29.3146 34.7266 29.5299 34.6115 29.7643 34.5649C29.9987 34.5183 30.2416 34.5422 30.4624 34.6336C30.6832 34.7251 30.8719 34.88 31.0047 35.0787C31.1375 35.2774 31.2083 35.511 31.2083 35.75C31.2083 36.0705 31.081 36.3778 30.8544 36.6044C30.6278 36.831 30.3205 36.9583 30 36.9583ZM31.2083 30.9167C31.2083 31.2371 31.081 31.5445 30.8544 31.7711C30.6278 31.9977 30.3205 32.125 30 32.125C29.6795 32.125 29.3722 31.9977 29.1456 31.7711C28.919 31.5445 28.7917 31.2371 28.7917 30.9167V23.6667C28.7917 23.3462 28.919 23.0389 29.1456 22.8122C29.3722 22.5856 29.6795 22.4583 30 22.4583C30.3205 22.4583 30.6278 22.5856 30.8544 22.8122C31.081 23.0389 31.2083 23.3462 31.2083 23.6667V30.9167Z" fill="#D85B53"/>
                        </g>
                        <defs>
                        <clipPath id="clip0_705_10303">
                        <rect width="29" height="29" fill="white" transform="translate(15.5 14)"/>
                        </clipPath>
                        </defs>
                    </svg>